<svg version="1.2" xmlns="http://www.w3.org/2000/svg" viewBox="0 0 100 50" width="100" height="50">
	<title>logo-alpez</title>
	<style>
		.s0 { opacity: 1;fill: #3737fc } 
	</style>
	<path id="Path 0" fill-rule="evenodd" class="s0" d="m23.7 0h4.9v39h-4.9zm22.3 15.3c0.3 0 0.8 0.1 1.1 0.1 0.4 0.1 1.1 0.3 1.6 0.4 0.5 0.2 1.3 0.6 1.7 0.8 0.4 0.3 1 0.8 1.4 1.1 0.4 0.4 1 1 1.2 1.3 0.3 0.4 0.8 1.1 1 1.6 0.3 0.5 0.7 1.4 0.9 2 0.2 0.6 0.4 1.6 0.5 2.3 0.2 1 0.2 1.8 0.1 3.2 0 1.4-0.1 2.3-0.3 3-0.1 0.6-0.4 1.6-0.6 2.1-0.3 0.6-0.7 1.5-1 1.9-0.3 0.5-0.8 1.1-1.1 1.5-0.4 0.4-1 1-1.5 1.3-0.4 0.3-1.2 0.8-1.6 1-0.5 0.2-1.3 0.4-1.9 0.5-0.5 0.1-1.3 0.2-1.8 0.2-0.5 0-1.3-0.1-1.8-0.2-0.5-0.1-1.2-0.4-1.8-0.7-0.6-0.3-1.3-0.8-1.6-1.2-0.4-0.3-0.9-0.9-1.7-2.1v14.6h-4.8v-34h4.8v3.7l0.5-0.8c0.3-0.5 0.8-1.1 1.1-1.4 0.3-0.3 0.9-0.7 1.2-1 0.3-0.2 0.9-0.5 1.4-0.7 0.5-0.2 1.2-0.4 1.7-0.4 0.5-0.1 1.1-0.1 1.3-0.1zm-4.4 6c-0.3 0.2-0.8 0.7-1.2 1.1-0.3 0.4-0.8 1.1-0.9 1.5-0.2 0.5-0.4 1.2-0.5 1.7-0.1 0.4-0.2 1.3-0.2 1.9 0 0.6 0.1 1.4 0.2 1.9 0 0.4 0.3 1.2 0.5 1.6 0.2 0.6 0.5 1.1 1 1.7 0.5 0.5 1 1 1.4 1.2 0.3 0.2 0.9 0.4 1.3 0.5 0.3 0.1 1 0.2 1.5 0.2 0.4 0 1.1-0.1 1.4-0.2 0.4-0.1 1-0.3 1.3-0.5 0.3-0.2 1-0.7 1.4-1.1 0.5-0.6 0.8-1.1 1.1-1.7 0.2-0.5 0.5-1.4 0.6-2 0.1-0.7 0.1-1.4 0.1-2.2-0.1-0.6-0.2-1.4-0.3-1.8-0.1-0.4-0.3-1-0.5-1.4-0.2-0.5-0.7-1.1-1-1.5-0.3-0.3-0.9-0.8-1.3-1-0.4-0.3-1-0.5-1.4-0.6-0.3-0.1-1-0.2-1.6-0.2-0.6 0-1.1 0.1-1.6 0.3-0.4 0.1-1 0.4-1.3 0.6zm-31.7-5.9c0.4 0 1.2 0 1.8 0.1 0.6 0.1 1.5 0.3 2 0.5 0.5 0.1 1.3 0.5 1.8 0.8 0.6 0.3 1.1 0.8 1.5 1.3 0.4 0.4 0.8 1 1 1.5 0.2 0.5 0.4 1.1 0.5 1.5 0.1 0.4 0.1 3.5 0.1 17.9h-4.7v-2.9l-0.8 0.9c-0.6 0.8-1 1.1-1.7 1.5-0.6 0.3-1.3 0.6-1.6 0.7-0.4 0.1-1.3 0.2-2.1 0.3-1.1 0-1.7 0-2.3-0.2-0.5-0.1-1.3-0.4-1.8-0.7-0.7-0.4-1.2-0.8-1.7-1.3-0.3-0.4-0.8-1.1-1-1.4-0.2-0.4-0.4-1.2-0.6-1.7-0.1-0.6-0.2-1.4-0.2-2.1 0-0.6 0.1-1.4 0.2-1.8 0.1-0.4 0.3-1 0.4-1.4 0.2-0.4 0.6-1 1-1.5 0.3-0.4 0.9-0.9 1.2-1.2 0.4-0.2 1.1-0.6 1.5-0.8 0.5-0.1 1-0.3 1.2-0.3 0.1-0.1 0.8-0.2 1.4-0.2 0.6-0.1 1.6-0.1 2.3 0 0.7 0 1.6 0.2 2.2 0.4 0.5 0.2 1.2 0.5 1.6 0.7 0.3 0.1 0.7 0.3 0.7 0.3 0.1 0.1 0.1-0.7 0.1-1.6q0-1.8-0.2-2.4c-0.1-0.4-0.3-0.8-0.5-1.1-0.3-0.3-0.7-0.6-1-0.8-0.3-0.1-0.9-0.3-1.4-0.4-0.5-0.1-1.2-0.1-1.8-0.1-0.6 0.1-1.5 0.2-2 0.4-0.6 0.1-1.5 0.5-2.3 1-0.7 0.4-1.3 0.6-1.3 0.6-0.1 0-0.5-0.9-1.9-3.7l0.6-0.4c0.3-0.2 1.2-0.7 2-1 0.7-0.4 1.8-0.8 2.3-0.9 0.6-0.2 1.4-0.3 1.9-0.4 0.5 0 1.2-0.1 1.6-0.1zm-3 13.4c-0.2 0.1-0.7 0.4-0.9 0.6-0.3 0.2-0.6 0.6-0.7 0.9-0.1 0.2-0.3 0.8-0.3 1.2 0 0.5 0 0.9 0.1 1.4 0.1 0.5 0.3 0.9 0.6 1.2 0.2 0.3 0.6 0.6 0.7 0.7 0.2 0.2 0.6 0.3 0.9 0.4 0.3 0.1 1 0.2 1.5 0.2 0.5 0 1.1-0.1 1.5-0.2 0.4-0.1 0.9-0.4 1.2-0.6 0.3-0.1 0.8-0.6 1.2-1q0.6-0.8 0.8-1.5c0.2-0.4 0.3-1.1 0.4-1.6v-0.9c-1-0.5-1.7-0.7-2.3-0.9-0.7-0.1-1.4-0.2-2.3-0.2-0.8 0-1.5 0.1-1.6 0.1-0.2 0-0.5 0.1-0.8 0.2zm74.6-12.8h9.2c5.1 0 9.3 0 9.3 0.1 0 0-2.6 4-5.7 8.9-3.2 4.9-5.8 8.9-5.8 8.9 0 0.1 2.4 0.1 10.5 0.1v5h-19.1l2.2-3.3c1.2-1.9 3.9-5.9 9.6-14.6l-10.2-0.1zm-12.4-0.4c1.6 0 2.1 0.1 2.8 0.3 0.5 0.1 1.3 0.4 1.7 0.7 0.5 0.2 1.2 0.7 1.5 1 0.4 0.2 1 0.8 1.3 1.2 0.3 0.4 0.8 1.1 1 1.6 0.2 0.4 0.6 1.3 0.8 1.8 0.2 0.6 0.4 1.5 0.5 2.1 0.1 0.6 0.1 1.9 0.1 4.5h-15.7v0.2c0 0.2 0.1 0.8 0.2 1.3 0.1 0.6 0.4 1.3 0.5 1.6 0.2 0.4 0.5 0.9 0.8 1.3 0.3 0.3 0.8 0.8 1.2 1 0.3 0.2 1 0.5 1.3 0.6 0.4 0.1 1.2 0.2 1.6 0.2 0.5 0 1.3-0.1 1.7-0.2 0.4-0.1 1-0.3 1.4-0.5 0.3-0.2 0.8-0.5 1.1-0.8 0.3-0.2 0.8-0.7 1-1.1 0.3-0.4 0.5-0.8 0.5-0.9 0.1-0.1 0.5 0 2.1 0.7 1.1 0.5 2.1 1 2.1 1 0.1 0-0.1 0.5-0.5 1-0.3 0.5-1 1.4-1.5 2-0.6 0.7-1.4 1.3-1.9 1.7-0.5 0.3-1.3 0.7-1.8 0.9-0.5 0.2-1.4 0.4-2 0.5-0.9 0.2-1.6 0.2-2.9 0.2-1.2-0.1-1.9-0.2-2.6-0.4-0.4-0.1-1.3-0.5-1.8-0.8-0.6-0.3-1.4-0.8-1.8-1.2-0.4-0.4-1-1-1.2-1.3-0.3-0.3-0.7-0.9-0.9-1.4-0.2-0.4-0.6-1.1-0.7-1.5-0.2-0.5-0.4-1.3-0.6-1.9-0.1-0.7-0.2-1.6-0.3-2.9 0-1.4 0-2.2 0.2-3.1 0.1-0.7 0.3-1.7 0.5-2.3 0.1-0.5 0.5-1.4 0.7-1.8 0.2-0.4 0.6-1.1 0.9-1.5 0.3-0.4 0.8-0.9 1.2-1.3 0.3-0.3 0.9-0.8 1.2-1 0.4-0.2 1-0.5 1.4-0.7 0.4-0.2 1.3-0.5 1.8-0.6 0.9-0.3 1.4-0.3 3.1-0.2zm-2.7 4.5c-0.4 0.2-0.9 0.5-1.2 0.7-0.3 0.3-0.7 0.9-1 1.3-0.2 0.4-0.5 1-0.7 1.4-0.1 0.4-0.2 0.9-0.3 1.1v0.4h10.4c-0.1-0.7-0.1-1.1-0.2-1.4-0.1-0.2-0.3-0.7-0.4-1.1-0.2-0.4-0.6-1-0.8-1.3-0.3-0.3-0.8-0.7-1.2-0.9-0.4-0.3-1-0.5-1.3-0.5-0.4-0.1-0.9-0.2-1.2-0.2-0.4 0-0.8 0.1-1.1 0.2-0.2 0-0.7 0.2-1 0.3z"/>
</svg>