<svg version="1.2" xmlns="http://www.w3.org/2000/svg" viewBox="0 0 72 57" width="72" height="57">
	<title>logo-alpez</title>
	<style>
		.s0 { opacity: 1;fill: #3737fc } 
	</style>
	<path id="Path 0" fill-rule="evenodd" class="s0" d="m17.1 0h3.5v44.5h-3.5zm16 17.4c0.2 0.1 0.6 0.1 0.8 0.2 0.3 0 0.8 0.2 1.2 0.4 0.3 0.2 0.9 0.7 1.2 0.9 0.3 0.3 0.7 0.9 1 1.3 0.3 0.4 0.7 1.1 0.9 1.5 0.2 0.4 0.5 1.2 0.7 1.8 0.2 0.6 0.5 1.6 0.6 2.2 0.2 0.7 0.3 1.8 0.4 2.7 0.1 1.1 0.1 2 0.1 3.6 0 1.6-0.1 2.6-0.2 3.4-0.1 0.7-0.3 1.8-0.5 2.5-0.2 0.6-0.5 1.6-0.7 2.1-0.2 0.5-0.6 1.3-0.8 1.7-0.3 0.4-0.7 1.1-1 1.5-0.4 0.4-0.9 0.9-1.3 1.1-0.3 0.2-0.9 0.5-1.3 0.6-0.3 0.1-1 0.2-1.3 0.2-0.4 0-0.9-0.1-1.3-0.2-0.4-0.1-0.9-0.4-1.3-0.8-0.4-0.4-0.9-1-1.2-1.4-0.2-0.3-0.6-1-1.2-2.4v16.7h-3.5v-38.8h3.5v4.2l0.4-0.9c0.2-0.5 0.6-1.2 0.8-1.6 0.2-0.3 0.6-0.8 0.8-1.1 0.3-0.2 0.7-0.6 1.1-0.8 0.3-0.2 0.8-0.4 1.2-0.5 0.3-0.1 0.8-0.1 0.9-0.1zm-3.1 6.8c-0.3 0.3-0.6 0.9-0.9 1.3-0.2 0.5-0.6 1.3-0.7 1.7-0.1 0.5-0.3 1.4-0.3 1.9-0.1 0.5-0.2 1.5-0.2 2.2 0 0.7 0.1 1.6 0.2 2.1 0 0.6 0.2 1.4 0.3 1.9 0.2 0.7 0.4 1.3 0.8 2 0.3 0.5 0.7 1.1 1 1.3 0.2 0.2 0.6 0.5 0.9 0.6 0.2 0.1 0.7 0.2 1 0.2 0.4 0 0.9-0.1 1.1-0.2 0.3-0.1 0.7-0.4 0.9-0.6 0.3-0.2 0.7-0.8 1-1.3 0.4-0.7 0.6-1.2 0.8-1.9 0.2-0.6 0.4-1.6 0.4-2.2 0.1-0.9 0.1-1.6 0.1-2.5 0-0.7-0.1-1.7-0.2-2.1 0-0.4-0.2-1.2-0.4-1.7-0.1-0.5-0.4-1.2-0.7-1.6-0.2-0.4-0.6-1-0.9-1.2-0.3-0.3-0.7-0.6-1-0.7-0.2-0.1-0.8-0.2-1.1-0.2-0.5 0-0.8 0.1-1.2 0.3-0.3 0.2-0.7 0.5-0.9 0.7zm-22.9-6.7c0.3 0 0.9 0.1 1.3 0.1 0.4 0.1 1.1 0.4 1.4 0.6 0.4 0.1 1 0.6 1.4 0.9 0.4 0.4 0.8 0.9 1.1 1.4 0.3 0.6 0.5 1.3 0.7 1.8 0.1 0.5 0.3 1.3 0.3 1.7 0.1 0.5 0.1 4 0.1 20.4h-3.4v-3.3l-0.6 1.1c-0.4 0.8-0.7 1.2-1.2 1.6-0.4 0.3-0.9 0.7-1.2 0.8-0.2 0.2-0.9 0.3-1.5 0.3-0.7 0.1-1.2 0.1-1.6-0.1-0.3-0.1-0.9-0.5-1.3-0.9-0.5-0.4-0.9-0.8-1.2-1.4-0.3-0.5-0.6-1.2-0.7-1.7-0.2-0.4-0.4-1.2-0.5-1.9-0.1-0.7-0.1-1.6-0.1-2.3 0-0.7 0-1.6 0.1-2.1 0.1-0.5 0.2-1.2 0.3-1.6 0.2-0.5 0.4-1.2 0.7-1.7 0.2-0.4 0.6-1 0.9-1.3 0.3-0.3 0.7-0.7 1.1-0.9 0.3-0.2 0.7-0.4 0.8-0.5 0.1 0 0.6-0.1 1-0.2 0.5 0 1.2 0 1.7 0 0.5 0.1 1.2 0.3 1.6 0.5 0.4 0.2 0.9 0.5 1.1 0.8 0.3 0.2 0.5 0.4 0.5 0.4 0.1 0 0.1-0.9 0.1-1.9q0-2-0.1-2.7c-0.1-0.4-0.2-0.9-0.4-1.3-0.2-0.3-0.5-0.7-0.7-0.9-0.2-0.1-0.7-0.4-1-0.4-0.4-0.2-0.9-0.2-1.3-0.1-0.4 0-1.1 0.2-1.5 0.4-0.4 0.2-1 0.6-1.6 1.1-0.5 0.5-0.9 0.8-1 0.7 0 0-0.3-1-1.4-4.2l0.5-0.5c0.2-0.2 0.9-0.7 1.4-1.1 0.6-0.4 1.4-0.9 1.7-1 0.4-0.2 1-0.4 1.4-0.5 0.3 0 0.9-0.1 1.1-0.1zm-2.1 15.3c-0.2 0.2-0.5 0.4-0.7 0.7-0.2 0.2-0.4 0.6-0.5 0.9-0.1 0.4-0.2 1-0.2 1.4 0 0.6 0 1.1 0.1 1.7 0.1 0.5 0.2 1 0.4 1.4 0.2 0.3 0.4 0.7 0.5 0.8 0.2 0.1 0.5 0.3 0.7 0.4 0.2 0.1 0.7 0.2 1 0.2 0.4 0 0.9-0.1 1.1-0.2 0.3-0.2 0.7-0.4 0.9-0.6 0.2-0.3 0.6-0.8 0.8-1.3q0.5-0.8 0.6-1.7c0.1-0.4 0.2-1.2 0.3-1.8v-1c-0.7-0.6-1.2-0.8-1.6-1-0.5-0.2-1-0.2-1.7-0.2-0.6 0-1.1 0-1.2 0-0.1 0.1-0.3 0.2-0.5 0.3zm53.7-14.6h6.6c3.7 0 6.7 0 6.7 0.1 0 0-1.9 4.6-4.1 10.2-2.3 5.5-4.2 10.1-4.2 10.1 0 0.1 1.7 0.1 7.6 0.1v5.7h-13.7l1.5-3.8c0.9-2.1 2.8-6.7 6.9-16.6l-7.3-0.1zm-9-0.5c1.2 0 1.6 0.1 2.1 0.4 0.3 0.1 0.9 0.5 1.2 0.8 0.4 0.2 0.8 0.7 1.1 1.1 0.3 0.3 0.7 1 0.9 1.4 0.2 0.5 0.6 1.3 0.7 1.8 0.2 0.5 0.4 1.4 0.6 2.1 0.1 0.6 0.3 1.7 0.3 2.4 0.1 0.7 0.2 2.1 0.2 5h-11.4v0.4c0 0.1 0.1 0.8 0.2 1.4 0.1 0.6 0.2 1.5 0.3 1.9 0.2 0.3 0.4 1 0.6 1.4 0.2 0.4 0.6 0.9 0.9 1.2 0.2 0.2 0.7 0.5 0.9 0.6 0.3 0.2 0.8 0.3 1.2 0.3 0.3 0 0.9-0.1 1.2-0.3 0.3-0.1 0.7-0.3 1-0.5 0.2-0.2 0.6-0.6 0.8-0.9 0.2-0.3 0.5-0.9 0.7-1.3 0.2-0.5 0.4-0.9 0.4-1 0-0.2 0.4 0 1.5 0.8 0.8 0.6 1.5 1.1 1.5 1.1 0.1 0-0.1 0.6-0.3 1.2-0.3 0.6-0.8 1.6-1.2 2.3-0.4 0.7-0.9 1.4-1.3 1.8-0.4 0.4-0.9 0.8-1.3 1.1-0.3 0.2-1 0.5-1.5 0.6-0.6 0.2-1.1 0.2-2 0.2-0.9-0.1-1.4-0.2-1.9-0.4-0.3-0.2-0.9-0.6-1.3-1-0.4-0.3-1-0.9-1.3-1.4-0.3-0.4-0.7-1-0.9-1.4-0.2-0.4-0.4-1.1-0.6-1.6-0.2-0.5-0.4-1.3-0.5-1.8-0.2-0.5-0.3-1.4-0.4-2.1-0.1-0.8-0.2-1.9-0.2-3.3-0.1-1.6 0-2.5 0-3.6 0.1-0.7 0.3-1.9 0.4-2.5 0.1-0.7 0.4-1.6 0.5-2.1 0.2-0.5 0.5-1.3 0.7-1.7 0.2-0.4 0.6-1.1 0.8-1.5 0.3-0.4 0.7-0.9 0.9-1.1 0.3-0.3 0.7-0.7 1-0.9 0.3-0.2 0.9-0.5 1.4-0.7 0.6-0.2 0.9-0.3 2.1-0.2zm-1.9 5.2c-0.3 0.2-0.6 0.5-0.8 0.8-0.3 0.3-0.6 0.9-0.8 1.4-0.1 0.5-0.4 1.2-0.4 1.6-0.1 0.5-0.2 1-0.3 1.3v0.5h7.5c0-0.9-0.1-1.3-0.1-1.6-0.1-0.3-0.2-0.9-0.4-1.3-0.1-0.5-0.3-1.1-0.5-1.5-0.2-0.3-0.6-0.8-0.9-1.1-0.3-0.2-0.7-0.4-0.9-0.5-0.3-0.1-0.7-0.2-0.9-0.2-0.2 0.1-0.6 0.1-0.8 0.2-0.1 0-0.5 0.2-0.7 0.4z"/>
</svg>